#!OML:ASF H:\Terrain\Patient Classification 1\Terrain2\Thursday\justin.ASF
:FULLY-SPECIFIED
:DEGREES
2165
root -1.96867 17.4125 16.7606 -357.274 -183.942 6.41343
lowerback 7.43855 0.502669 6.49646
upperback 3.70187 1.73559 4.54324
thorax -0.305378 1.15793 0.923234
lowerneck -11.2901 -7.18088 -9.48035
upperneck 39.21 -4.67267 3.42015
head 16.3765 -1.39821 2.82976
rclavicle -3.16068e-014 -7.07673e-014
rhumerus -26.4418 -10.0498 -77.3339
rradius 31.5282
rwrist -10.1817
rhand -19.5229 10.3339
rfingers 7.12502
rthumb 6.80042 -19.5368
lclavicle -3.16068e-014 -7.07673e-014
lhumerus -37.4489 10.1757 81.8018
lradius 30.2008
lwrist 1.3083
lhand -15.8189 22.4215
lfingers 7.12502
lthumb 10.3749 -307.854
rfemur 10.6962 -2.81143 29.1176
rtibia 15.0482
rfoot -19.459 7.1397
rtoes 7.38241
lfemur -30.9941 362.291 -13.611
ltibia 28.9193
lfoot -10.3868 -8.10459
ltoes -7.08914
2166
root -1.97677 17.4078 16.6656 -357.165 -183.874 6.57356
lowerback 7.36774 0.538622 6.66574
upperback 3.64424 1.78277 4.4904
thorax -0.317212 1.17928 0.771934
lowerneck -11.1395 -7.20138 -9.55388
upperneck 39.0682 -4.80787 3.63942
head 16.2863 -1.44074 2.91175
rclavicle -3.77691e-015 3.65764e-014
rhumerus -26.5803 -10.5394 -77.4125
rradius 31.278
rwrist -9.71362
rhand -19.6436 10.582
rfingers 7.12502
rthumb 6.68387 -19.2925
lclavicle -3.77691e-015 3.65764e-014
lhumerus -37.5092 10.1998 81.6488
lradius 30.173
lwrist 1.33961
lhand -16.1322 21.9437
lfingers 7.12502
lthumb 10.0726 -308.317
rfemur 11.0369 -2.81615 29.2571
rtibia 14.8272
rfoot -19.2687 6.98088
rtoes 5.0127
lfemur -30.906 362.118 -13.4655
ltibia 29.221
lfoot -9.66772 -7.96611
ltoes -7.94363
2167
root -1.98724 17.4065 16.5711 -357.07 -183.782 6.6035
lowerback 7.33184 0.556371 6.78258
upperback 3.57332 1.79819 4.38049
thorax -0.362555 1.18026 0.59179
lowerneck -11.1956 -7.19318 -9.63934
upperneck 39.1863 -4.81304 3.84653
head 16.3753 -1.41924 3.02551
rclavicle -1.43125e-014 4.6118e-014
rhumerus -26.8217 -10.7251 -77.5948
rradius 31.2172
rwrist -9.82595
rhand -20.1749 10.5034
rfingers 7.12502
rthumb 6.17097 -19.3867
lclavicle -1.43125e-014 4.6118e-014
lhumerus -37.4548 10.1116 81.6407
lradius 30.151
lwrist 1.65889
lhand -16.3911 21.9129
lfingers 7.12502
lthumb 9.8228 -308.336
rfemur 11.3935 -2.75767 29.2626
rtibia 14.566
rfoot -19.0663 6.75829
rtoes 3.8782
lfemur -30.8883 361.908 -13.478
ltibia 29.4841
lfoot -8.99808 -7.61057
ltoes -8.7511
2168
root -1.99763 17.4 16.4715 -357.079 -183.861 6.54594
lowerback 7.37398 0.563381 6.5794
upperback 3.54769 1.79965 4.43191
thorax -0.420669 1.17613 0.75568
lowerneck -11.3544 -7.119 -9.72583
upperneck 39.3503 -4.55073 3.66535
head 16.4785 -1.33967 3.01301
rclavicle -1.49089e-014 -4.21423e-014
rhumerus -27.1084 -10.3272 -77.624
rradius 31.2841
rwrist -10.2031
rhand -20.4537 10.7036
rfingers 7.12502
rthumb 5.90177 -19.1942
lclavicle -1.49089e-014 -4.21423e-014
lhumerus -37.4946 10.3019 81.8468
lradius 30.1901
lwrist 2.08015
lhand -16.597 21.8807
lfingers 7.12502
lthumb 9.62414 -308.359
rfemur 11.8191 -2.42233 29.1693
rtibia 14.4402
rfoot -18.8057 6.62623
rtoes 3.69431
lfemur -30.7458 361.843 -13.5851
ltibia 29.626
lfoot -8.3242 -7.42405
ltoes -6.54975
2169
root -2.00427 17.4089 16.3751 -357.06 -183.893 6.38447
lowerback 7.41891 0.568009 6.17063
upperback 3.55795 1.78212 4.49603
thorax -0.450399 1.16165 1.04878
lowerneck -11.4277 -7.04102 -9.82024
upperneck 39.273 -4.38182 3.55004
head 16.4411 -1.30764 3.00104
rclavicle -5.76476e-015 -8.50798e-014
rhumerus -27.1716 -10.2691 -77.5181
rradius 31.1149
rwrist -10.05
rhand -20.2019 11.0266
rfingers 7.12502
rthumb 6.14487 -18.8643
lclavicle -5.76476e-015 -8.50798e-014
lhumerus -37.4906 10.5884 82.0043
lradius 30.1968
lwrist 2.46031
lhand -16.5874 21.7039
lfingers 7.12502
lthumb 9.63345 -308.536
rfemur 12.1115 -2.10456 28.9961
rtibia 14.4856
rfoot -18.4515 6.51411
rtoes 2.81208
lfemur -30.5662 361.713 -13.741
ltibia 29.6722
lfoot -7.77901 -7.43986
ltoes -3.71693
